<svg height="512" viewBox="0 0 64 64" width="512" xmlns="http://www.w3.org/2000/svg"><g id="Flat"><g id="Color"><g><path d="m32 11a24 24 0 0 1 24 24v10a0 0 0 0 1 0 0h-48a0 0 0 0 1 0 0v-10a24 24 0 0 1 24-24z" fill="#fcbc04"/><g fill="#e59730"><path d="m32 11a23.893 23.893 0 0 0 -14.7 5.032l4.033 17.968h18.334l2.75-20.627a23.9 23.9 0 0 0 -10.417-2.373z"/><path d="m43.444 31.006a2 2 0 0 0 3.864 1.035l3.276-12.226a24.169 24.169 0 0 0 -3.081-3.13 1.976 1.976 0 0 0 -.435.8z"/><path d="m15.142 33.455a2 2 0 0 0 1.414-2.449l-3.034-11.321a24.128 24.128 0 0 0 -2.939 4.487l2.109 7.869a2 2 0 0 0 2.45 1.414z"/></g><path d="m41.667 34 2.933-22a27.985 27.985 0 0 0 -25.2 0l2.933 22z" fill="#f9e109"/><path d="m24 12c0-.625.032-1.242.083-1.854a28.008 28.008 0 0 0 -4.683 1.854l2.933 22h19.334l.056-.419a22 22 0 0 1 -17.723-21.581z" fill="#fcbc04"/><rect fill="#f9e109" height="18" rx="2" transform="matrix(.966 .259 -.259 .966 8.085 -11.887)" width="4" x="47.188" y="15.762"/><rect fill="#f9e109" height="18" rx="2" transform="matrix(-.966 .259 -.259 -.966 35.529 44.847)" width="4" x="12.812" y="15.762"/><path d="m48.858 32.455a2 2 0 0 1 -1.414-2.449l3.624-13.523a1.946 1.946 0 0 1 .192-.456 1.993 1.993 0 0 0 -2.192 1.456l-3.624 13.523a2 2 0 0 0 3.672 1.494 1.925 1.925 0 0 1 -.258-.045z" fill="#fcbc04"/><path d="m16.692 31.041-3.623-13.523a2 2 0 0 1 .191-1.5 2 2 0 0 0 -2.191 2.5l3.623 13.523a2 2 0 0 0 3.672.465 2 2 0 0 1 -1.672-1.465z" fill="#fcbc04"/><path d="m37.921 39h18.079v-4c0-.335-.012-.668-.025-1h-17.044a7.993 7.993 0 0 0 -15.862 0h-15.044c-.013.332-.025.665-.025 1v10h48v-3h-21.155a8.036 8.036 0 0 0 3.076-3zm-22.921 3a3 3 0 0 1 -3-3h12.079a8.036 8.036 0 0 0 3.076 3z" fill="#e59730"/><rect fill="#f9e109" height="6" rx="3" width="58" x="3" y="45"/><path d="m8.338 31a24.178 24.178 0 0 0 -.338 4v2h48v-2a24.178 24.178 0 0 0 -.338-4z" fill="#57b7eb"/><path d="m60 48h-52a2.992 2.992 0 0 1 -2.982-2.822 2.993 2.993 0 0 0 .982 5.822h52a3 3 0 0 0 3-3c0-.061-.014-.118-.018-.178a2.962 2.962 0 0 1 -.982.178z" fill="#fcbc04"/><path d="m16 34a3.992 3.992 0 0 1 -3.859-3h-3.8a24.178 24.178 0 0 0 -.341 4v2h48v-2c0-.337-.029-.667-.043-1z" fill="#4891d3"/><path d="m38 34a7.96 7.96 0 0 0 -.587-3h-14.826a7.96 7.96 0 0 0 0 6h14.826a7.96 7.96 0 0 0 .587-3z" fill="#4891d3"/><circle cx="32" cy="33" fill="#f89c8d" r="8"/><path d="m35 37a7.986 7.986 0 0 1 -7.575-10.557 8 8 0 1 0 12.15 9.114 7.954 7.954 0 0 1 -4.575 1.443z" fill="#f8664f"/><circle cx="32" cy="33" fill="#f9e109" r="4"/><path d="m32 29a4 4 0 1 0 4 4 4 4 0 0 0 -4-4zm2.774 6.274a3.956 3.956 0 0 1 -5.048-5.048 3.956 3.956 0 0 1 5.048 5.048z" fill="#fcbc04"/><g><path d="m40.34 10.27-.92 8.83a1.006 1.006 0 0 1 -1 .9.34.34 0 0 1 -.1-.01.99.99 0 0 1 -.89-1.09l.94-9.01.03-.15c.66.15 1.3.33 1.94.53z" fill="#b27525"/><path d="m26.57 18.9a.99.99 0 0 1 -.89 1.09.34.34 0 0 1 -.1.01 1.006 1.006 0 0 1 -1-.9l-.92-8.83c.64-.2 1.28-.38 1.94-.53l.03.15z" fill="#b27525"/><g fill="#e59730"><path d="m25.63 9.89.94 9.01a.99.99 0 0 1 -.89 1.09.34.34 0 0 1 -.1.01 1.006 1.006 0 0 1 -1-.9l-.92-8.83c.64-.2 1.28-.38 1.94-.53z"/><path d="m40.34 10.27-.92 8.83a1.006 1.006 0 0 1 -1 .9.34.34 0 0 1 -.1-.01.99.99 0 0 1 -.89-1.09l.94-9.01.03-.15c.66.15 1.3.33 1.94.53z"/></g></g></g></g></g></svg>